<svg width="47" height="47" viewBox="0 0 47 47" fill="none" xmlns="http://www.w3.org/2000/svg">
<path d="M41.1251 25.0471C40.817 28.3806 39.5659 31.5574 37.5183 34.2058C35.4706 36.8542 32.7111 38.8647 29.5625 40.002C26.4139 41.1393 23.0065 41.3563 19.7391 40.6278C16.4716 39.8992 13.4792 38.2551 11.1121 35.888C8.7449 33.5208 7.10085 30.5284 6.37229 27.261C5.64372 23.9935 5.86079 20.5862 6.99808 17.4376C8.13537 14.289 10.1458 11.5294 12.7943 9.48177C15.4427 7.43411 18.6195 6.18306 21.953 5.875C20.0013 8.51536 19.0622 11.7685 19.3063 15.0428C19.5505 18.317 20.9618 21.3949 23.2835 23.7166C25.6051 26.0383 28.683 27.4495 31.9573 27.6937C35.2316 27.9379 38.4847 26.9987 41.1251 25.0471Z" stroke="black" stroke-width="4" stroke-linecap="round" stroke-linejoin="round"/>
</svg>
