<?xml version="1.0" encoding="UTF-8" standalone="no"?>
<svg
   width="26"
   height="26"
   viewBox="0 0 26 26"
   fill="none"
   version="1.1"
   id="svg1"
   sodipodi:docname="circulo-add-icon.svg"
   inkscape:version="1.4.2 (f4327f4, 2025-05-13)"
   xmlns:inkscape="http://www.inkscape.org/namespaces/inkscape"
   xmlns:sodipodi="http://sodipodi.sourceforge.net/DTD/sodipodi-0.dtd"
   xmlns="http://www.w3.org/2000/svg"
   xmlns:svg="http://www.w3.org/2000/svg">
  <sodipodi:namedview
     id="namedview1"
     pagecolor="#505050"
     bordercolor="#ffffff"
     borderopacity="1"
     inkscape:showpageshadow="0"
     inkscape:pageopacity="0"
     inkscape:pagecheckerboard="1"
     inkscape:deskcolor="#505050"
     inkscape:zoom="31.346154"
     inkscape:cx="12.984049"
     inkscape:cy="13"
     inkscape:window-width="1920"
     inkscape:window-height="1017"
     inkscape:window-x="1072"
     inkscape:window-y="-8"
     inkscape:window-maximized="1"
     inkscape:current-layer="svg1" />
  <g
     clip-path="url(#clip0_30_117)"
     id="g1">
    <path
       d="M 13.0001,8.66667 V 17.3333 M 8.66675,13 h 8.66665 m 6.5,0 c 0,5.9831 -4.8502,10.8333 -10.8333,10.8333 C 7.017,23.8333 2.16675,18.9831 2.16675,13 2.16675,7.01692 7.017,2.16667 13.0001,2.16667 18.9832,2.16667 23.8334,7.01692 23.8334,13 Z"
       stroke="#0d0d0d"
       stroke-width="4"
       stroke-linecap="round"
       stroke-linejoin="round"
       id="path1"
       style="display:inline;mix-blend-mode:color" />
  </g>
  <defs
     id="defs1">
    <clipPath
       id="clip0_30_117">
      <rect
         width="26"
         height="26"
         fill="white"
         id="rect1" />
    </clipPath>
  </defs>
  <path
     style="fill:#d09c14;stroke-width:0.0319018"
     d="M 12.377914,25.805869 C 9.3064075,25.601033 6.7012547,24.533155 4.4814701,22.569038 2.4376951,20.760659 0.99476635,18.263317 0.44739623,15.587083 0.2499847,14.621887 0.20907171,14.177764 0.20907171,13 c 0,-0.929525 0.009318,-1.137266 0.0715466,-1.595092 C 0.49119864,9.8556343 0.89094031,8.5548693 1.5649219,7.2257669 2.5871341,5.209948 4.0420165,3.5732684 5.9177914,2.3289771 7.2998021,1.4122233 8.70598,0.81781073 10.320245,0.46799327 c 0.933059,-0.20219729 1.627421,-0.27189314 2.695706,-0.27057856 1.184335,0.001457 1.986248,0.096546 3.072856,0.36437093 2.841047,0.70025576 5.385331,2.39093356 7.175586,4.76818086 1.108812,1.4723711 1.916867,3.2673568 2.288211,5.0829505 0.197411,0.965196 0.238324,1.409319 0.238324,2.587083 0,0.929525 -0.0093,1.137266 -0.07155,1.595092 -0.272034,2.001398 -0.909823,3.740943 -1.974448,5.385231 -1.427667,2.205 -3.575234,3.964323 -6.023777,4.934782 -1.081116,0.428492 -2.171025,0.697098 -3.365329,0.829381 -0.422936,0.04685 -1.632862,0.08439 -1.977914,0.06138 z m 1.914111,-4.0468 c 1.328756,-0.208987 2.517729,-0.670287 3.620858,-1.404825 0.565872,-0.376796 0.947933,-0.697381 1.454422,-1.220398 1.306644,-1.349283 2.097972,-2.96606 2.393238,-4.889674 0.102152,-0.665503 0.102152,-1.822841 0,-2.488344 C 21.520364,10.191099 20.976269,8.884995 20.054348,7.6600926 19.738159,7.2399903 19.114912,6.5798203 18.715082,6.2414838 17.468125,5.1863061 15.958186,4.5035981 14.292025,4.2416295 13.779574,4.1610575 12.569777,4.1431743 12.011043,4.2079121 9.133132,4.5413613 6.638603,6.2151513 5.2312389,8.7570552 4.1986127,10.622128 3.8914493,12.914355 4.3890807,15.041718 c 0.3601737,1.539734 1.136447,2.950878 2.2604873,4.109212 1.3770649,1.419079 3.1909742,2.349358 5.074358,2.602427 0.210553,0.02829 0.42589,0.05731 0.478528,0.06448 0.249921,0.03406 1.771396,-0.0087 2.089571,-0.05877 z"
     id="path3" />
  <path
     style="fill:#d09c14;stroke-width:0.0319018"
     d="m 12.5735,19.269539 c -0.432932,-0.09849 -0.880401,-0.384436 -1.138147,-0.727315 -0.18002,-0.239479 -0.240433,-0.355325 -0.33652,-0.645291 -0.07183,-0.216755 -0.07434,-0.262845 -0.0855,-1.569322 l -0.01151,-1.346008 -1.3775984,-0.01096 c -1.3051905,-0.01038 -1.3869019,-0.01446 -1.5545935,-0.07766 -0.6982113,-0.263154 -1.1443486,-0.736209 -1.3241,-1.40399 -0.065075,-0.241757 -0.065075,-0.736227 0,-0.977984 0.1797514,-0.667781 0.6258887,-1.140836 1.3241,-1.40399 0.1676916,-0.0632 0.249403,-0.06729 1.5545935,-0.07766 l 1.3775984,-0.01096 0.01122,-1.3460081 0.01122,-1.3460085 0.0863,-0.2577162 c 0.207823,-0.6206355 0.696232,-1.1027736 1.315201,-1.298314 0.314908,-0.099483 0.833558,-0.099483 1.148466,0 0.618969,0.1955404 1.107378,0.6776785 1.315201,1.298314 l 0.0863,0.2577162 0.01122,1.3460085 0.01122,1.3460081 1.377598,0.01096 c 1.32125,0.01051 1.385135,0.01379 1.561842,0.08016 0.77607,0.291496 1.263658,0.883177 1.358707,1.648768 0.09709,0.782006 -0.315023,1.60493 -0.981666,1.960247 -0.46421,0.247421 -0.406643,0.239935 -1.938883,0.252121 l -1.377598,0.01096 -0.01122,1.346008 -0.01122,1.346009 -0.0863,0.257716 c -0.205678,0.614231 -0.69649,1.102624 -1.29925,1.29285 -0.272299,0.08593 -0.745505,0.107044 -1.016684,0.04535 z"
     id="path4" />
  <path
     style="fill:#d09c14;stroke-width:0.0319018"
     d="m 12.090798,25.773709 c -0.06141,-0.0075 -0.298283,-0.03603 -0.526381,-0.0635 C 8.5809357,25.350973 6.0421824,24.120523 3.9386153,22.014235 2.047692,20.120866 0.80872987,17.711314 0.36983595,15.07362 0.25982502,14.412468 0.22348316,13.876948 0.22339034,12.91565 0.22330578,12.039946 0.24803789,11.70725 0.36889797,10.958282 0.72183216,8.7711549 1.6272807,6.7456608 3.0499573,4.9607362 3.4854512,4.414355 4.3870779,3.5126504 4.9447853,3.0657445 5.3915016,2.7077787 6.2718154,2.1074183 6.7153374,1.8582551 8.205096,1.021334 9.8538178,0.48009928 11.500613,0.28736703 c 0.606025,-0.070926 1.628398,-0.0937838 2.328835,-0.0520674 3.701962,0.2204809 7.161179,2.10073317 9.427327,5.12420947 1.019152,1.3597455 1.756725,2.9206321 2.168931,4.5899967 0.287368,1.1637902 0.36747,1.9619262 0.342252,3.4101912 -0.01786,1.02539 -0.0575,1.375764 -0.265447,2.346025 -0.819683,3.824538 -3.363039,7.059514 -6.919689,8.801374 -1.309907,0.641523 -2.62612,1.026369 -4.131288,1.20794 -0.380222,0.04587 -2.111855,0.0889 -2.360736,0.05867 z m 2.368884,-4.030172 c 2.175517,-0.378296 4.090498,-1.504531 5.457392,-3.209589 1.264605,-1.577465 1.932721,-3.48369 1.935182,-5.52134 10e-4,-0.841033 -0.08284,-1.483644 -0.304894,-2.336525 C 21.017837,8.6422574 19.662839,6.7716145 17.861729,5.5878801 16.732306,4.8455945 15.293792,4.3260226 14.009503,4.1965072 13.508464,4.1459791 12.318526,4.1546759 11.880737,4.2120651 9.6935752,4.4987768 7.7077539,5.5631524 6.2966366,7.2050731 5.0522989,8.6529359 4.3556907,10.304936 4.1759104,12.234356 c -0.077606,0.832875 0.00749,2.005627 0.2060128,2.839264 0.6833879,2.86964 2.8193507,5.248423 5.6334968,6.273923 0.432368,0.157559 1.068381,0.318725 1.616511,0.409626 0.449984,0.07462 0.526541,0.07803 1.463775,0.06516 0.807718,-0.01109 1.057683,-0.02553 1.363976,-0.07879 z"
     id="path5" />
  <path
     style="fill:#e25563;stroke-width:0.0319018"
     d="m 12.090798,25.773709 c -0.06141,-0.0075 -0.298283,-0.03603 -0.526381,-0.0635 C 8.5767932,25.350475 6.0451034,24.123448 3.9386153,22.014235 2.0498939,20.123071 0.81629,17.727045 0.37062063,15.084128 0.24991931,14.368343 0.21290609,13.707381 0.23273809,12.621895 0.25054674,11.647155 0.28526036,11.306302 0.44905521,10.497881 0.71924285,9.1643502 1.1594959,7.9723455 1.816983,6.794156 2.8312712,4.9765936 4.192129,3.5054307 5.9177914,2.3609535 6.5569269,1.9370722 6.8787351,1.7533449 7.5369014,1.4365683 8.7480691,0.85363101 10.140082,0.44984828 11.516564,0.28218336 c 0.644281,-0.0784777 2.305548,-0.0783458 2.966872,2.3564e-4 0.609202,0.0723882 1.454662,0.24531828 2.070894,0.42358012 1.348998,0.39023388 2.797029,1.09760498 3.915657,1.91281828 0.830286,0.6050817 1.747107,1.4555137 2.34759,2.1775972 1.458979,1.7544296 2.433309,3.8749098 2.811802,6.1194574 0.119568,0.709062 0.157223,1.373103 0.138579,2.443825 -0.01709,0.981414 -0.0524,1.316668 -0.231529,2.198246 -0.623163,3.066867 -2.350234,5.785964 -4.879987,7.683042 -1.82221,1.366488 -3.916003,2.203105 -6.188957,2.472924 -0.395041,0.04689 -2.124657,0.09041 -2.376687,0.0598 z m 2.280981,-4.016163 c 1.211827,-0.186513 2.513562,-0.698224 3.557055,-1.398276 0.801793,-0.537901 1.484961,-1.180244 2.126864,-1.999761 0.706339,-0.901784 1.324461,-2.232763 1.585267,-3.413497 0.164319,-0.743914 0.193997,-1.041618 0.193997,-1.946012 0,-0.904394 -0.02968,-1.202098 -0.193997,-1.946012 C 21.07131,8.4750184 19.300145,6.2237537 16.923926,5.05833 15.965421,4.588228 14.936734,4.2880588 13.956005,4.1922958 13.375279,4.1355909 12.040783,4.170251 11.573262,4.2541813 10.077197,4.5227574 8.792049,5.0731478 7.6635163,5.928608 5.429193,7.6222895 4.1495426,10.193402 4.1475809,12.992932 c -7.672e-4,1.094651 0.1782423,2.106241 0.5488447,3.101547 1.0321755,2.772054 3.4595954,4.895559 6.3416114,5.547636 0.755054,0.170836 1.032547,0.195009 2.057669,0.179247 0.631281,-0.0097 1.065646,-0.03143 1.276073,-0.06382 z"
     id="path6" />
  <path
     style="fill:#e25563;stroke-width:0.0319018"
     d="M 11.444744,25.680053 C 8.4464723,25.261672 6.063028,24.094866 3.9851837,22.028253 2.1746147,20.22747 0.97124241,17.990199 0.46606349,15.485619 0.28608304,14.59331 0.27113327,14.397441 0.27147778,12.936196 0.27182198,11.476291 0.28110261,11.370075 0.49611153,10.365274 0.72251722,9.307213 1.0157576,8.4530409 1.4808237,7.4969325 2.1220173,6.1787316 2.8511739,5.1274992 3.8122699,4.1356634 5.2672765,2.6341201 7.0771142,1.5001685 9.0601227,0.8476275 9.9367588,0.55915619 11.044977,0.33043072 11.851953,0.2714208 c 0.549726,-0.0401986 1.744006,-0.0399748 2.280562,4.2721e-4 1.108933,0.0835013 2.360168,0.37796371 3.477301,0.81833869 1.647162,0.6493133 3.002341,1.5234598 4.310595,2.7805121 2.123417,2.0403116 3.543798,4.9893773 3.794993,7.8793532 0.05147,0.592146 0.02094,2.558079 -0.04641,2.988598 -0.315522,2.01689 -0.958596,3.708214 -2.015289,5.300339 -1.967932,2.965094 -5.055545,4.974382 -8.548866,5.563241 -1.042611,0.175749 -2.705006,0.211097 -3.660094,0.07782 z m 2.515107,-3.874315 c 1.485141,-0.102514 3.251485,-0.824656 4.575118,-1.870466 0.377954,-0.298623 1.176961,-1.110889 1.490625,-1.51536 0.972996,-1.254684 1.660808,-2.977638 1.794332,-4.494759 0.04148,-0.47132 0.0414,-1.380445 -1.66e-4,-1.850306 C 21.706124,10.790307 21.196344,9.3392906 20.46008,8.2047103 19.760762,7.1270642 18.732483,6.1117217 17.68334,5.462905 16.664631,4.8329093 15.466193,4.3947503 14.292025,4.2230119 13.873734,4.1618309 13.734767,4.1569219 12.840491,4.1717379 11.781682,4.1892789 11.617689,4.2074879 10.884299,4.3889397 9.3051122,4.779655 7.9733619,5.5220976 6.7990925,6.6664169 5.3157415,8.1119349 4.4328223,9.9175287 4.1915458,11.998921 c -0.064244,0.554203 -0.04605,1.835234 0.03294,2.319361 0.2212272,1.355895 0.6611925,2.496938 1.3737118,3.5627 0.3763859,0.562985 0.6354288,0.877435 1.1314313,1.373438 0.5038803,0.50388 0.813488,0.757927 1.3999644,1.148732 1.0760239,0.71702 2.3680747,1.212698 3.6102837,1.385037 0.356504,0.04946 1.613699,0.0594 2.219974,0.01755 z"
     id="path7" />
  <path
     style="fill:#f29f05;stroke-width:0.0319018;fill-opacity:1"
     d="M 11.444744,25.680053 C 10.220677,25.509246 9.304814,25.275781 8.2944785,24.877011 4.706712,23.460951 1.8838344,20.389064 0.76555121,16.683947 0.59460657,16.11757 0.41649135,15.323914 0.32898078,14.73865 0.24434384,14.172605 0.24416908,11.78434 0.32872515,11.245399 0.54557778,9.8632295 0.91322413,8.6626127 1.4713196,7.5140459 2.1592537,6.09827 2.8908549,5.065603 3.9703716,3.9865924 5.8869624,2.0709 8.2894549,0.82987489 10.942331,0.38517565 11.5959,0.27561853 12.081326,0.24084634 12.968098,0.24006512 c 1.273843,-0.001122 2.046704,0.0911968 3.190184,0.38107061 1.81328,0.45966897 3.533081,1.33826777 4.975119,2.54165187 1.787513,1.4916826 3.027286,3.2353766 3.852793,5.4188075 0.30719,0.8125057 0.596725,1.9782549 0.70122,2.8233129 0.05699,0.460845 0.05718,2.809092 2.63e-4,3.206135 -0.2948,2.056538 -0.957829,3.813816 -2.064296,5.471166 -1.965913,2.944691 -5.035824,4.932338 -8.527975,5.521527 -1.034374,0.174518 -2.697727,0.20929 -3.650662,0.07632 z m 2.979845,-3.920063 c 1.167989,-0.183227 2.41486,-0.676033 3.472344,-1.372389 0.550312,-0.362383 0.836275,-0.598219 1.35606,-1.118355 0.766339,-0.766856 1.18105,-1.336273 1.638414,-2.249614 0.447088,-0.892823 0.742893,-1.797092 0.887038,-2.711657 0.08156,-0.517452 0.08235,-2.085916 0.0013,-2.60347 C 21.428235,9.4593497 20.266,7.452336 18.503067,6.0461306 17.294533,5.0821412 15.725124,4.4125905 14.197262,4.2091614 13.795618,4.155684 12.599845,4.1486496 12.0077,4.1962813 11.406019,4.2446799 10.599357,4.4339095 9.8936945,4.6921922 9.419912,4.8656033 8.5416846,5.3101076 8.13502,5.5823241 5.9900057,7.0181704 4.6129104,9.1704565 4.2258559,11.692025 c -0.070481,0.459167 -0.09729,1.641372 -0.048948,2.15842 0.3487796,3.730338 3.0309926,6.837216 6.7016201,7.762665 0.347264,0.08755 0.81875,0.175094 1.100613,0.204352 0.311909,0.03238 2.147734,-0.01077 2.445448,-0.05747 z"
     id="path8" />
  <path
     style="fill:#f29f05;fill-opacity:1;stroke-width:0.0319018"
     d="m 12.514279,19.23765 c -0.526168,-0.148301 -1.034021,-0.560552 -1.265996,-1.027676 -0.188472,-0.379524 -0.186999,-0.366766 -0.212161,-1.838355 -0.01284,-0.751192 -0.03101,-1.373455 -0.04036,-1.382808 -0.0094,-0.0094 -0.64609,-0.02718 -1.4149731,-0.03963 C 8.1991304,14.926823 8.1807752,14.925666 8.007362,14.849961 7.3624576,14.568423 6.9522954,14.12725 6.7768167,13.52638 c -0.075821,-0.259622 -0.075821,-0.793138 0,-1.05276 0.1761324,-0.603108 0.5832387,-1.040994 1.2305453,-1.323581 0.1734132,-0.0757 0.1917684,-0.07686 1.5734289,-0.09922 0.7688831,-0.01244 1.4061161,-0.03077 1.4160751,-0.04073 0.01,-0.01 0.02498,-0.625044 0.03338,-1.3668572 l 0.01528,-1.3487513 0.09298,-0.2438716 C 11.360564,7.4681866 11.777384,7.0399942 12.337078,6.8193372 12.535102,6.7412668 12.591104,6.7340631 13,6.7340631 c 0.4076,0 0.465292,0.00736 0.660256,0.084271 0.569003,0.2244537 0.9761,0.642045 1.201307,1.2322731 l 0.09305,0.2438716 0.0147,1.3482423 c 0.0081,0.7415329 0.02308,1.3566189 0.03331,1.3668569 0.01024,0.01024 0.647701,0.02828 1.416584,0.04009 l 1.397969,0.02147 0.269571,0.127009 c 0.594175,0.279946 0.962109,0.692905 1.137899,1.277143 0.09089,0.302062 0.07719,0.791095 -0.03142,1.12174 -0.156098,0.47521 -0.487798,0.881927 -0.913738,1.120389 -0.369738,0.206997 -0.335046,0.202704 -1.860821,0.230241 -0.769182,0.01388 -1.406645,0.03337 -1.416584,0.04331 -0.0099,0.0099 -0.02468,0.62478 -0.03277,1.366313 l -0.0147,1.348242 -0.09155,0.23998 c -0.229775,0.602306 -0.679623,1.053488 -1.240978,1.244659 -0.270349,0.09207 -0.859968,0.117344 -1.107807,0.04749 z"
     id="path9" />
  <path
     style="fill:#f29f05;fill-opacity:1;stroke-width:0.0319018"
     d="M 12.234356,25.724661 C 11.683084,25.702926 11.063365,25.61964 10.344935,25.470734 6.5597072,24.686189 3.2834179,22.126917 1.5476931,18.598773 0.98229496,17.449509 0.62690808,16.342274 0.37613488,14.948692 0.30748532,14.567197 0.30391218,14.469528 0.30426052,12.984049 0.30466036,11.278939 0.29921655,11.346817 0.51381049,10.371228 0.76941382,9.2092029 1.1032205,8.2736871 1.633901,7.2320991 2.3339544,5.858076 3.1818981,4.7326313 4.2907975,3.7056974 6.2854898,1.8584451 8.5853771,0.75353672 11.277301,0.34925243 c 0.777791,-0.11681198 2.680512,-0.10807534 3.525153,0.0161863 2.884936,0.42442529 5.486293,1.78628657 7.506074,3.92957627 1.728964,1.8346892 2.812294,4.027927 3.29914,6.679218 l 0.08787,0.478528 2.81e-4,1.547239 2.8e-4,1.547239 -0.0909,0.494479 c -0.358323,1.949213 -0.98907,3.526027 -2.031356,5.078219 -1.381749,2.057728 -3.430465,3.73241 -5.716953,4.67321 -0.79587,0.32747 -1.848163,0.634212 -2.664688,0.776754 -0.76518,0.133579 -1.938281,0.194958 -2.957846,0.15476 z m 1.692599,-3.918232 c 1.435684,-0.07599 3.098114,-0.723683 4.442153,-1.730702 0.577647,-0.432802 1.478722,-1.363982 1.892259,-1.955482 0.84043,-1.2021 1.450907,-2.832751 1.564573,-4.179141 0.04768,-0.564829 0.01694,-1.982134 -0.05121,-2.360736 C 21.611636,10.674289 21.358601,9.9013069 20.959483,9.0899152 19.726128,6.5825495 17.509437,4.8735501 14.722699,4.2815489 L 14.244172,4.1798927 13.047853,4.1795169 c -1.032282,-3.241e-4 -1.239972,0.00776 -1.514679,0.058991 C 9.6270525,4.5939575 8.0519515,5.403498 6.7451098,6.6993865 5.4142627,8.0190792 4.5737334,9.6354274 4.2400934,11.516564 c -0.085932,0.484504 -0.1230923,1.948362 -0.062817,2.474559 0.2313624,2.019773 1.1116784,3.847812 2.5415259,5.277659 1.3163158,1.316316 2.9818628,2.176173 4.8456147,2.501601 0.402391,0.07026 1.422112,0.08582 2.362538,0.03605 z"
     id="path10" />
  <path
     style="fill:#f29f05;fill-opacity:1;stroke-width:0.0319018"
     d="m 12.457669,19.207965 c -0.333543,-0.105932 -0.758411,-0.396154 -0.975972,-0.666674 -0.190076,-0.236345 -0.34666,-0.581021 -0.382013,-0.840895 -0.01633,-0.120003 -0.04205,-0.77487 -0.05717,-1.45526 -0.01512,-0.68039 -0.03625,-1.245829 -0.04695,-1.256532 -0.0107,-0.0107 -0.554634,-0.03114 -1.2087352,-0.04541 C 8.116873,14.906749 8.1571526,14.910276 7.8937423,14.777449 7.1292747,14.391962 6.7312883,13.783421 6.7312883,13 c 0,-0.750935 0.3846979,-1.36935 1.0777184,-1.732471 0.3503424,-0.183568 0.2637759,-0.174182 1.9464804,-0.211044 0.6719599,-0.01472 1.2312599,-0.03628 1.2428889,-0.04791 0.01163,-0.01163 0.0308,-0.634236 0.04261,-1.383572 l 0.02146,-1.3624283 0.09761,-0.2353121 c 0.23343,-0.5627459 0.606788,-0.9462564 1.154059,-1.1854398 0.151755,-0.066324 0.236189,-0.078283 0.624945,-0.088517 0.41263,-0.010863 0.46802,-0.00539 0.675558,0.066788 0.552541,0.1921548 0.968546,0.6045803 1.228199,1.2176302 l 0.09523,0.2248511 0.02039,1.3616046 c 0.01122,0.7488823 0.0306,1.3718123 0.04308,1.3842893 0.01248,0.01248 0.657465,0.03623 1.433307,0.05279 l 1.410622,0.03011 0.24108,0.121377 c 0.508552,0.256041 0.812427,0.549548 1.008152,0.973755 0.177812,0.385381 0.220592,0.795984 0.128298,1.231386 -0.15626,0.737173 -0.801889,1.379401 -1.472317,1.464563 -0.138875,0.01764 -0.80949,0.04465 -1.490256,0.06001 -0.680765,0.01536 -1.247613,0.03779 -1.259663,0.04984 -0.01205,0.01205 -0.03108,0.63463 -0.0423,1.383513 l -0.02039,1.361604 -0.09772,0.230875 c -0.215015,0.508008 -0.552546,0.885714 -0.978978,1.095501 -0.140368,0.06905 -0.332543,0.139822 -0.427054,0.157259 -0.237397,0.0438 -0.822182,0.03596 -0.976627,-0.01309 z"
     id="path11" />
</svg>
