<?xml version="1.0" encoding="UTF-8" standalone="no"?>
<svg
   width="26"
   height="26"
   viewBox="0 0 26 26"
   fill="none"
   version="1.1"
   id="svg1"
   sodipodi:docname="filter-user-icon.svg"
   inkscape:version="1.4.2 (f4327f4, 2025-05-13)"
   xmlns:inkscape="http://www.inkscape.org/namespaces/inkscape"
   xmlns:sodipodi="http://sodipodi.sourceforge.net/DTD/sodipodi-0.dtd"
   xmlns="http://www.w3.org/2000/svg"
   xmlns:svg="http://www.w3.org/2000/svg">
  <defs
     id="defs1" />
  <sodipodi:namedview
     id="namedview1"
     pagecolor="#505050"
     bordercolor="#ffffff"
     borderopacity="1"
     inkscape:showpageshadow="0"
     inkscape:pageopacity="0"
     inkscape:pagecheckerboard="1"
     inkscape:deskcolor="#505050"
     showguides="false"
     inkscape:zoom="31.346154"
     inkscape:cx="13"
     inkscape:cy="13"
     inkscape:window-width="1920"
     inkscape:window-height="1017"
     inkscape:window-x="1072"
     inkscape:window-y="-8"
     inkscape:window-maximized="1"
     inkscape:current-layer="svg1" />
  <path
     d="M20.5363 21.2798V19.371C20.5363 18.3586 20.1393 17.3876 19.4327 16.6717C18.726 15.9558 17.7676 15.5536 16.7682 15.5536H9.23198C8.23262 15.5536 7.27418 15.9558 6.56752 16.6717C5.86086 17.3876 5.46387 18.3586 5.46387 19.371V21.2798M16.7682 7.91864C16.7682 10.027 15.0812 11.7361 13.0001 11.7361C10.919 11.7361 9.23198 10.027 9.23198 7.91864C9.23198 5.81032 10.919 4.10118 13.0001 4.10118C15.0812 4.10118 16.7682 5.81032 16.7682 7.91864Z"
     stroke="#0D0D0D"
     stroke-width="4"
     stroke-linecap="round"
     stroke-linejoin="round"
     id="path1"
     style="stroke:#f29f05;stroke-opacity:1" />
  <circle
     cx="13"
     cy="13"
     r="12"
     stroke="#0D0D0D"
     stroke-width="2"
     id="circle1"
     style="stroke:#f29f05;stroke-opacity:1" />
</svg>
