<svg width="74" height="69" viewBox="0 0 74 69" fill="none" xmlns="http://www.w3.org/2000/svg">
<ellipse cx="37" cy="34.5" rx="37" ry="34.5" fill="#D9D9D9"/>
<path d="M53 49V45C53 42.8783 52.1571 40.8434 50.6569 39.3431C49.1566 37.8429 47.1217 37 45 37H29C26.8783 37 24.8434 37.8429 23.3431 39.3431C21.8429 40.8434 21 42.8783 21 45V49M45 21C45 25.4183 41.4183 29 37 29C32.5817 29 29 25.4183 29 21C29 16.5817 32.5817 13 37 13C41.4183 13 45 16.5817 45 21Z" stroke="#303030" stroke-width="4" stroke-linecap="round" stroke-linejoin="round"/>
</svg>
